<?xml version="1.0" encoding="UTF-8"?>
<svg id="beschriftung" xmlns="http://www.w3.org/2000/svg" version="1.1" viewBox="0 0 1700.79 1020.47">
  <defs>
    <style>
      .cls-1, .cls-2 {
        stroke-width: 0px;
      }

      .cls-1, .cls-3 {
        fill: #000;
      }

      .cls-2 {
        fill: #181716;
      }

      .cls-3 {
        font-family: Futura, Futura;
        font-size: 242.7px;
      }
    </style>
  </defs>
  <g>
    <polygon class="cls-1" points="926.28 23.58 926.43 95.83 847.93 95.99 848.1 179.23 918.86 179.09 919.03 251.12 848.23 251.25 848.56 412.77 771.55 412.93 770.77 23.88 926.28 23.58"/>
    <path class="cls-1" d="M1091.69,23.24l94.21,388.86-82.04.15-14.42-65.36-78.05.16-13.77,65.41-76.41.14L1010.72,23.41l80.97-.17h0ZM1057.99,182.13l-8.84-58.95h-1.07s-8.19,59-8.19,59l-16.37,103.8,54.19-.08-19.73-103.77h0Z"/>
    <polygon class="cls-1" points="1281.68 22.88 1282.01 196.81 1283.04 196.8 1346.64 22.73 1424.9 22.58 1353.65 202.3 1435.2 411.58 1354.08 411.76 1283.07 213.85 1282.06 213.84 1282.46 411.9 1205.63 412.06 1204.87 23.03 1281.68 22.88"/>
    <polygon class="cls-1" points="1636.63 22.16 1636.75 94.41 1575.95 94.53 1576.61 411.31 1499.59 411.47 1498.93 94.68 1438.52 94.81 1438.39 22.55 1636.63 22.16"/>
    <text class="cls-3" transform="translate(80.04 928.09) rotate(-.12)"><tspan x="0" y="0">Proving ground</tspan></text>
  </g>
  <g>
    <path class="cls-2" d="M485.99,730.9l-58.37.12-.31-159.52c-.09-38.98-5.99-78.74-49.24-78.68-51.76.12-58.46,50.38-58.37,99.63l.28,138.79-58.52.13-.3-149.57c-.08-46.12-5.99-88.88-48.6-88.79-52.04.11-59.06,50.36-58.96,99.59l.27,138.81-58.39.11-.57-282.23,58.39-.12.06,31.04c17.49-24.1,45.18-39.43,72.19-39.47,34.01-.06,60.9,15.64,80.19,46.79,18.18-28.74,51.32-47.06,85.3-47.12,62.51-.12,94.44,40.94,94.6,122.03l.35,168.47h0Z"/>
    <polygon class="cls-2" points="906.17 727.45 854.11 727.53 853.65 499.5 792.47 499.63 792.35 450.22 966.79 449.85 966.88 499.28 905.71 499.4 906.17 727.45"/>
    <polygon class="cls-2" points="1051.1 727.15 998.87 727.25 998.33 449.79 1050.53 449.69 1051.1 727.15"/>
    <path class="cls-2" d="M1226.39,732.4c-81.07.16-145.05-63.04-145.24-143.93-.13-79.46,64.87-144.42,144.64-144.59,79.92-.16,144.87,64.54,145.05,143.97.18,80.91-63.21,144.38-144.44,144.55h0ZM1225.91,494.13c-52.93.1-92.63,40.46-92.51,94.22.1,51.86,41.64,94.08,92.89,94,51.08-.1,92.6-42.37,92.5-94.36-.13-53.77-40-93.96-92.87-93.86h0Z"/>
    <path class="cls-2" d="M1643.59,728.62l-58.54.09-.32-161.33c-.1-51.1-9.12-76.94-58.73-76.84-66.31.12-66.18,57.67-66.07,108.57l.24,130.01-58.33.13-.57-282.59,58.33-.12.09,32.86c17.16-25.59,48.17-41.25,82.32-41.32,90.55-.18,101.12,69.95,101.22,122.68l.35,167.84h0Z"/>
    <path class="cls-2" d="M654.16,733.57c-81.07.17-145.04-63.08-145.22-143.97-.14-79.45,64.87-144.41,144.65-144.57,79.93-.16,144.88,64.54,145.05,143.99.17,80.9-63.21,144.38-144.47,144.55h0ZM653.67,495.28c-52.89.1-92.59,40.47-92.47,94.22.09,51.86,41.62,94.08,92.85,94,51.09-.12,92.61-42.37,92.51-94.4-.1-53.74-39.99-93.92-92.89-93.82h0Z"/>
  </g>
</svg>